<svg width="686" height="204" viewBox="0 0 686 204" fill="none" xmlns="http://www.w3.org/2000/svg">
<rect width="686" height="204" fill="black"/>
<path d="M86.202 106.6L76.602 106.5C73.6686 106.5 71.4353 106.533 69.902 106.6C68.902 115.467 68.3686 123.067 68.302 129.4C83.9686 129.4 95.602 128.133 103.202 125.6C102.602 130.533 101.102 134.367 98.702 137.1C96.302 139.833 93.302 141.2 89.702 141.2C88.6353 141.2 85.6353 140.9 80.702 140.3C75.8353 139.767 70.6686 139.5 65.202 139.5C59.7353 139.5 54.402 140.067 49.202 141.2C49.9353 138.067 51.5353 135.5 54.002 133.5V133.1C54.002 129.5 54.9353 121.3 56.802 108.5C55.1353 109.1 53.702 109.633 52.502 110.1C52.3686 108.633 52.302 107.533 52.302 106.8C52.302 102.333 54.2686 99.5 58.202 98.3C59.402 89.5 60.202 81.5667 60.602 74.5C58.1353 74.3667 56.5686 73.8 55.902 72.8C55.2353 71.8 54.902 69.8333 54.902 66.9C55.102 63.9 55.3686 61.9333 55.702 61C63.1686 62 71.402 62.5 80.402 62.5C89.4686 62.5 98.202 61.7 106.602 60.1C105.669 67.1 101.402 71.3 93.802 72.7C89.3353 73.5667 82.702 74.1333 73.902 74.4C73.8353 75.1333 72.8686 82.8667 71.002 97.6C75.002 97.7333 77.7686 97.8 79.302 97.8C85.6353 97.8 90.1353 96.7 92.802 94.5C92.9353 95.8333 93.002 96.8333 93.002 97.5C93.002 103.567 90.7353 106.6 86.202 106.6ZM128.888 109.1C131.088 101.567 134.521 95.2333 139.188 90.1C143.855 84.9 148.188 82.3 152.188 82.3C156.255 82.3 159.121 83.5333 160.788 86C162.521 88.4 163.388 91.7 163.388 95.9C163.388 100.033 162.721 105.867 161.388 113.4C160.121 120.933 159.488 126.433 159.488 129.9C159.488 133.3 159.921 135.8 160.788 137.4C161.655 138.933 163.121 140.267 165.188 141.4C164.321 141.467 163.088 141.5 161.488 141.5C155.888 141.5 151.888 140.633 149.488 138.9C147.155 137.167 145.988 134.133 145.988 129.8C145.988 127.333 146.655 122.533 147.988 115.4C149.321 108.2 149.988 102.833 149.988 99.3C149.988 94.9 148.655 92.7 145.988 92.7C144.388 92.7 142.621 93.6 140.688 95.4C138.755 97.2 136.888 99.6667 135.088 102.8C133.355 105.867 131.888 109.833 130.688 114.7C129.488 119.567 128.888 124.433 128.888 129.3C128.888 134.1 129.088 137.667 129.488 140C127.355 140.133 125.955 140.2 125.288 140.2C121.488 140.2 118.755 139.567 117.088 138.3C115.421 136.967 114.588 134.867 114.588 132C114.588 129.133 115.155 123.667 116.288 115.6C119.888 90.8 121.688 71.9667 121.688 59.1C121.688 53.3 121.288 49.4 120.488 47.4C125.488 48.7333 128.888 50.7667 130.688 53.5C132.555 56.1667 133.488 59.9667 133.488 64.9C133.488 68.2333 132.821 75.2333 131.488 85.9C130.221 96.5667 129.355 104.3 128.888 109.1ZM198.597 88.2C196.731 88.2 195.064 88.8333 193.597 90.1C192.131 91.3 191.397 93.0333 191.397 95.3C191.397 97.5667 192.164 99.7 193.697 101.7C195.297 103.7 197.231 105.467 199.497 107C201.764 108.467 204.031 110 206.297 111.6C208.631 113.133 210.664 115.067 212.397 117.4C214.131 119.667 215.097 122.2 215.297 125C215.297 129.8 213.231 133.833 209.097 137.1C204.964 140.367 199.831 142 193.697 142C187.564 142 182.731 140.767 179.197 138.3C175.731 135.833 173.997 133 173.997 129.8C173.997 126.6 174.964 124.033 176.897 122.1C178.897 120.1 181.364 119.1 184.297 119.1C185.831 119.1 187.264 119.367 188.597 119.9C186.464 122.167 185.397 124.567 185.397 127.1C185.397 129.633 186.097 131.667 187.497 133.2C188.897 134.733 190.797 135.5 193.197 135.5C195.597 135.5 197.597 134.9 199.197 133.7C200.864 132.433 201.697 130.833 201.697 128.9C201.697 126.9 201.131 125.133 199.997 123.6C198.864 122.067 197.431 120.733 195.697 119.6C194.031 118.4 192.197 117.067 190.197 115.6C188.197 114.133 186.331 112.667 184.597 111.2C182.931 109.667 181.531 107.767 180.397 105.5C179.264 103.167 178.697 100.633 178.697 97.9C178.697 93.1667 180.631 89.3 184.497 86.3C188.431 83.2333 193.297 81.7 199.097 81.7C204.964 81.7 209.231 82.8333 211.897 85.1C214.631 87.3667 215.997 90.0333 215.997 93.1C215.997 96.1 215.031 98.6667 213.097 100.8C211.231 102.933 208.797 104 205.797 104C204.331 104 202.664 103.7 200.797 103.1C202.264 101.833 203.397 100.4 204.197 98.8C204.997 97.1333 205.397 95.5 205.397 93.9C205.397 92.3 204.731 90.9667 203.397 89.9C202.064 88.7667 200.464 88.2 198.597 88.2ZM238.993 121.1C238.993 124.233 239.559 126.8 240.693 128.8C241.893 130.733 243.559 131.7 245.693 131.7C248.826 131.7 251.793 129.867 254.593 126.2C257.459 122.533 259.726 117.833 261.393 112.1C263.126 106.367 263.993 100.933 263.993 95.8C263.993 90.6 263.793 86.4 263.393 83.2C265.393 83.0667 266.793 83 267.593 83C270.993 83 273.559 83.6333 275.293 84.9C277.026 86.1667 277.893 88.4333 277.893 91.7C277.893 92.9667 277.093 98.1333 275.493 107.2C273.893 116.2 273.093 123.433 273.093 128.9C273.093 134.3 274.126 139.1 276.193 143.3C271.193 142.433 267.526 140.6 265.193 137.8C262.859 134.933 261.693 130.833 261.693 125.5C261.693 124.567 261.826 122.767 262.093 120.1C260.293 126.433 257.093 131.533 252.493 135.4C247.893 139.267 243.359 141.2 238.893 141.2C234.493 141.2 230.926 139.567 228.193 136.3C225.526 132.967 224.193 128.267 224.193 122.2C224.193 116.133 225.259 110.267 227.393 104.6C229.593 98.8667 232.859 94.0333 237.193 90.1C241.526 86.1 246.359 84.1 251.693 84.1C254.759 84.1 257.893 84.8333 261.093 86.3C254.359 88.7 248.993 93.4333 244.993 100.5C240.993 107.5 238.993 114.367 238.993 121.1ZM328.669 82.3C332.602 82.3 335.402 83.5333 337.069 86C338.802 88.4 339.669 91.7 339.669 95.9C339.669 100.033 339.002 105.867 337.669 113.4C336.402 120.933 335.769 126.433 335.769 129.9C335.769 133.3 336.202 135.8 337.069 137.4C337.936 138.933 339.402 140.267 341.469 141.4C340.602 141.467 339.369 141.5 337.769 141.5C332.169 141.5 328.169 140.633 325.769 138.9C323.436 137.167 322.269 134.133 322.269 129.8C322.269 127.333 322.936 122.533 324.269 115.4C325.602 108.2 326.269 102.833 326.269 99.3C326.269 94.9 324.936 92.7 322.269 92.7C320.736 92.7 319.002 93.6 317.069 95.4C315.136 97.2 313.269 99.6667 311.469 102.8C309.669 105.867 308.169 109.833 306.969 114.7C305.769 119.567 305.169 124.433 305.169 129.3C305.169 134.1 305.369 137.667 305.769 140C303.636 140.133 302.236 140.2 301.569 140.2C297.769 140.2 295.036 139.533 293.369 138.2C291.702 136.867 290.869 134.667 290.869 131.6C290.869 130.267 291.569 125.133 292.969 116.2C294.369 107.267 295.069 100.167 295.069 94.9C295.069 89.5667 294.502 84.6667 293.369 80.2C298.236 81.7333 301.636 83.9333 303.569 86.8C305.502 89.6 306.469 92.8333 306.469 96.5C306.469 100.1 306.069 104.3 305.269 109.1C307.469 101.633 310.936 95.3 315.669 90.1C320.402 84.9 324.736 82.3 328.669 82.3ZM355.167 123.6C355.167 120.8 355.7 115.733 356.767 108.4C357.833 101.067 358.367 95.3667 358.367 91.3C358.367 87.2333 358.167 84.1 357.767 81.9C359.233 81.7667 360.6 81.7 361.867 81.7C365.733 81.7 368.4 82.3667 369.867 83.7C371.4 84.9667 372.167 87.1667 372.167 90.3C372.167 91.3 371.333 96.5667 369.667 106.1C368.067 115.567 367.233 123.4 367.167 129.6C367.167 135.733 367.567 139.7 368.367 141.5C363.167 140.167 359.667 138.167 357.867 135.5C356.067 132.767 355.167 128.8 355.167 123.6ZM368.767 73.3C361.9 73.3 358.467 70.9 358.467 66.1C358.467 64.3667 358.967 62 359.967 59C361.833 58.7333 363.467 58.6 364.867 58.6C371.733 58.6 375.167 61 375.167 65.8C375.167 67.5333 374.667 69.9 373.667 72.9C371.8 73.1667 370.167 73.3 368.767 73.3ZM410.896 141.5C403.029 141.5 396.429 138.5 391.096 132.5C385.762 126.5 383.096 117.767 383.096 106.3C383.096 93.5 386.396 82.6 392.996 73.6C396.262 69.2667 400.429 65.8333 405.496 63.3C410.629 60.7 416.529 59.4 423.196 59.4C429.929 59.4 435.029 61.2 438.496 64.8C442.029 68.3333 443.796 72.5333 443.796 77.4C443.796 82.2 442.462 86.1333 439.796 89.2C437.129 92.2 433.662 93.7 429.396 93.7C427.929 93.7 426.229 93.4333 424.296 92.9C425.696 91.1667 426.929 88.7 427.996 85.5C429.062 82.3 429.596 79.2667 429.596 76.4C429.596 73.5333 428.929 71.2 427.596 69.4C426.262 67.6 424.162 66.7 421.296 66.7C416.896 66.7 412.929 68.7333 409.396 72.8C405.862 76.8667 403.229 81.8667 401.496 87.8C399.762 93.7333 398.896 99.8667 398.896 106.2C398.896 114.733 400.562 121.2 403.896 125.6C407.229 130 411.496 132.2 416.696 132.2C419.962 132.2 423.362 131.1 426.896 128.9C430.429 126.7 433.796 123.567 436.996 119.5C439.462 120.033 440.696 121.267 440.696 123.2C438.162 127.8 435.062 131.533 431.396 134.4C427.729 137.267 424.262 139.167 420.996 140.1C417.729 141.033 414.362 141.5 410.896 141.5ZM483.348 89.9C479.015 89.9 475.148 92.8333 471.748 98.7C468.348 104.5 466.648 110.3 466.648 116.1C466.648 128.233 469.781 134.3 476.048 134.3C480.515 134.3 484.148 131.4 486.948 125.6C489.748 119.733 491.148 113.167 491.148 105.9C491.148 95.2333 488.548 89.9 483.348 89.9ZM489.548 82.6C493.548 82.6 496.948 84.5667 499.748 88.5C502.548 92.4333 503.948 97.7 503.948 104.3C503.948 111.7 502.448 118.5 499.448 124.7C496.115 131.7 491.381 136.533 485.248 139.2C481.781 140.733 477.981 141.5 473.848 141.5C468.048 141.5 462.981 139.267 458.648 134.8C454.381 130.267 452.248 123.8 452.248 115.4C452.248 106.933 454.315 99.5 458.448 93.1C462.581 86.6333 468.048 82.5667 474.848 80.9C475.581 80.9 476.248 81.1333 476.848 81.6C477.515 82 477.848 82.4333 477.848 82.9C471.115 87.5667 467.081 94.0667 465.748 102.4C467.148 98.6667 468.848 95.4333 470.848 92.7C472.915 89.9667 475.048 87.9 477.248 86.5C481.448 83.9 485.548 82.6 489.548 82.6ZM530.667 107.5C533.067 98.8333 535.933 92.4667 539.267 88.4C542.667 84.2667 545.8 82.2 548.667 82.2C551.6 82.2 553.8 83.3 555.267 85.5C556.733 87.6333 557.467 90.4333 557.467 93.9C557.467 97.3 556.433 100.433 554.367 103.3C552.367 106.167 549.6 107.6 546.067 107.6C545.133 107.6 544.033 107.333 542.767 106.8C544.833 104.2 545.867 101.067 545.867 97.4C545.867 95.2667 545 94.2 543.267 94.2C542 94.2 540.633 95.1 539.167 96.9C537.7 98.6333 536.3 101.067 534.967 104.2C533.633 107.267 532.5 111.233 531.567 116.1C530.7 120.9 530.267 126.033 530.267 131.5C530.267 132.167 530.433 135 530.767 140C528.633 140.133 527.267 140.2 526.667 140.2C522.867 140.2 520.133 139.533 518.467 138.2C516.8 136.867 515.967 134.667 515.967 131.6C515.967 130.267 516.667 125.133 518.067 116.2C519.467 107.267 520.167 100.167 520.167 94.9C520.167 89.5667 519.6 84.6667 518.467 80.2C523.333 81.7333 526.733 83.9333 528.667 86.8C530.6 89.6 531.567 92.9 531.567 96.7C531.567 100.433 531.267 104.033 530.667 107.5ZM588.256 89.5C592.523 86.3 596.723 84.7 600.856 84.7C604.989 84.7 608.389 86.3667 611.056 89.7C613.789 92.9667 615.156 97.7333 615.156 104C615.156 114 612.423 122.5 606.956 129.5C601.489 136.5 594.923 140 587.256 140C584.523 140 581.756 139.467 578.956 138.4C585.489 136.867 590.689 132.633 594.556 125.7C598.423 118.767 600.356 111.867 600.356 105C600.356 101.8 599.756 99.2 598.556 97.2C597.423 95.2 595.789 94.2 593.656 94.2C589.589 94.2 585.989 96.6667 582.856 101.6C579.723 106.533 577.323 113.3 575.656 121.9C573.989 130.433 573.156 139.333 573.156 148.6C573.156 157.933 573.823 166.033 575.156 172.9C569.689 172.7 565.623 171.8 562.956 170.2C560.356 168.667 559.056 165.7 559.056 161.3C559.056 159.7 560.056 151.267 562.056 136C564.123 120.667 565.156 108.867 565.156 100.6C565.156 92.3333 564.656 85.3667 563.656 79.7C568.989 81.0333 572.656 83.5 574.656 87.1C576.723 90.7 577.756 95.9667 577.756 102.9C580.556 97.1667 584.056 92.7 588.256 89.5ZM630.597 141.1C625.664 141.1 623.197 139.033 623.197 134.9C623.197 133.567 623.797 130.733 624.997 126.4C627.331 125.733 629.697 125.4 632.097 125.4C637.031 125.4 639.497 127.467 639.497 131.6C639.497 132.933 638.897 135.767 637.697 140.1C635.364 140.767 632.997 141.1 630.597 141.1Z" fill="white"/>
</svg>
